<svg width="69" height="66" viewBox="0 0 69 66" fill="none" xmlns="http://www.w3.org/2000/svg">
<g clip-path="url(#clip0_968_825)">
<path d="M68.9628 2.40825C68.666 1.31099 68.332 0.3396 67.8795 0H1.14635C0.678879 0.331835 0.29428 1.46383 0 2.65958L2.00686 2.6649L2.08775 3.2734L2.11356 3.70127C2.23216 5.7548 2.29618 7.70494 2.29668 9.7217L2.30065 52.8529L23.005 61.3065L34.4839 66.0004L58.8262 56.083L65.4195 53.3944L66.5634 52.9281C66.6036 52.9117 66.6651 52.8803 66.6999 52.8602C66.7311 52.8423 66.7252 52.5554 66.7252 52.4573V52.3036V52.159V52.0143V51.8692V51.7233V51.5644V13.0597V12.8962V12.7499V12.6048V12.4597V12.3147V12.17V12.02C66.7217 10.159 66.7227 8.33919 66.7802 6.4953L66.7842 6.36984C66.8056 5.68288 66.8343 5.04659 66.8735 4.36208C66.885 4.16224 66.9822 2.73192 67.0105 2.70127C67.015 2.69636 67.0413 2.66612 67.0477 2.66571L67.0939 2.66367H67.1425L67.1906 2.66326H67.2383L67.2859 2.66285H67.3336H67.3812H67.4289L67.4765 2.66326H67.5241H67.5718H67.6194L67.6671 2.66285H67.7147H67.7623H67.81H67.8576H67.9053H67.9529H68.0005H68.0482H68.8338H68.8814L68.9325 2.66163C68.9444 2.66163 68.9851 2.63465 68.9975 2.6273C69.0139 2.61708 68.9792 2.46383 68.9643 2.40825H68.9628ZM3.26388 3.71802L4.05193 2.13077C3.78495 2.74377 3.51995 3.28402 3.26388 3.71802Z" fill="url(#paint0_linear_968_825)"/>
</g>
<defs>
<linearGradient id="paint0_linear_968_825" x1="34.5009" y1="0" x2="34.5009" y2="66.0004" gradientUnits="userSpaceOnUse">
<stop stop-color="#00551C"/>
<stop offset="1" stop-color="#00BB3E"/>
</linearGradient>
<clipPath id="clip0_968_825">
<rect width="69" height="66" fill="white"/>
</clipPath>
</defs>
</svg>
