<svg width="19" height="20" viewBox="0 0 19 20" fill="none" xmlns="http://www.w3.org/2000/svg">
<path d="M6.86111 16.8421C6.54796 16.8421 6.24184 16.9347 5.98146 17.1082C5.72108 17.2817 5.51814 17.5283 5.3983 17.8168C5.27846 18.1053 5.24711 18.4228 5.3082 18.7291C5.36929 19.0354 5.52009 19.3167 5.74153 19.5375C5.96296 19.7584 6.24508 19.9087 6.55222 19.9697C6.85935 20.0306 7.17771 19.9993 7.46703 19.8798C7.75634 19.7603 8.00363 19.5579 8.17761 19.2983C8.35158 19.0386 8.44444 18.7333 8.44444 18.4211C8.44444 18.0023 8.27763 17.6007 7.9807 17.3046C7.68376 17.0085 7.28104 16.8421 6.86111 16.8421ZM17.9444 13.6842H5.27778C4.99783 13.6842 4.72934 13.5733 4.53139 13.3759C4.33343 13.1785 4.22222 12.9108 4.22222 12.6316C4.22222 12.3524 4.33343 12.0847 4.53139 11.8873C4.72934 11.6898 4.99783 11.5789 5.27778 11.5789H14.2407C14.9283 11.5767 15.5967 11.3524 16.1457 10.9395C16.6947 10.5266 17.0947 9.94735 17.2858 9.28865L18.9593 3.44726C19.0042 3.2906 19.012 3.12569 18.9821 2.9655C18.9523 2.80531 18.8855 2.65423 18.7871 2.52414C18.6887 2.39405 18.5614 2.28851 18.4152 2.21582C18.269 2.14314 18.1078 2.10529 17.9444 2.10526H5.00235C4.78384 1.49196 4.38102 0.960747 3.84879 0.584015C3.31656 0.207282 2.6808 0.00334816 2.02813 0H1.05556C0.775605 0 0.50712 0.110902 0.309165 0.308309C0.11121 0.505715 0 0.773456 0 1.05263C0 1.33181 0.11121 1.59955 0.309165 1.79695C0.50712 1.99436 0.775605 2.10526 1.05556 2.10526H2.02813C2.25728 2.10606 2.48 2.18086 2.66294 2.31845C2.84589 2.45605 2.97922 2.64904 3.04297 2.86853L3.20713 3.44194L3.20738 3.44726L4.93916 9.49167C4.1333 9.57812 3.39137 9.96941 2.86611 10.585C2.34086 11.2005 2.07228 11.9935 2.11568 12.8006C2.15907 13.6077 2.51114 14.3675 3.09939 14.9235C3.68763 15.4795 4.46728 15.7895 5.27778 15.7895H17.9444C18.2244 15.7895 18.4929 15.6786 18.6908 15.4812C18.8888 15.2838 19 15.016 19 14.7368C19 14.4577 18.8888 14.1899 18.6908 13.9925C18.4929 13.7951 18.2244 13.6842 17.9444 13.6842ZM16.5451 4.21053L15.2561 8.70991C15.1924 8.92957 15.059 9.12274 14.876 9.26044C14.6929 9.39815 14.47 9.47297 14.2407 9.47368H7.12963L6.86053 8.53452L5.62233 4.21053H16.5451ZM15.3056 16.8421C14.9924 16.8421 14.6863 16.9347 14.4259 17.1082C14.1655 17.2817 13.9626 17.5283 13.8427 17.8168C13.7229 18.1053 13.6916 18.4228 13.7526 18.7291C13.8137 19.0354 13.9645 19.3167 14.186 19.5375C14.4074 19.7584 14.6895 19.9087 14.9967 19.9697C15.3038 20.0306 15.6222 19.9993 15.9115 19.8798C16.2008 19.7603 16.4481 19.5579 16.622 19.2983C16.796 19.0386 16.8889 18.7333 16.8889 18.4211C16.8889 18.0023 16.7221 17.6007 16.4251 17.3046C16.1282 17.0085 15.7255 16.8421 15.3056 16.8421Z" fill="black"/>
</svg>
