<svg width="364" height="167" viewBox="0 0 364 167" fill="none" xmlns="http://www.w3.org/2000/svg">
<path d="M363.175 0H102.16C102.247 11.6554 92.8564 21.3105 81.3448 21.6077C69.6284 21.905 59.655 12.411 59.4317 0.551186H0.819061V4.10603C3.26901 4.25466 5.20416 6.30458 5.20416 8.75705C5.20416 11.2095 3.26901 13.2594 0.819061 13.4081V19.4216C3.15738 19.564 5.0119 21.3724 5.20416 23.5214C5.42123 25.9429 3.47989 28.2591 0.819061 28.4449C0.726013 30.2657 0.639191 32.0927 0.546143 33.9134C3.10153 33.9134 5.20416 36.0129 5.20416 38.5645C5.20416 41.116 3.10153 43.2155 0.546143 43.2155C0.639191 45.0363 0.726013 46.8632 0.819061 48.684C3.43646 49.1299 5.19794 51.4957 4.92502 53.88C4.69553 55.9175 3.01471 57.6392 0.819061 57.9799V64.272C3.33722 64.5445 5.11108 66.7183 4.92502 68.9231C4.77615 70.7315 3.33102 72.3231 1.36487 72.7504C1.27182 74.6641 1.185 76.5777 1.09195 78.4914C3.31241 78.9559 4.91263 80.9129 4.92502 83.1424C4.93741 85.2914 3.47369 87.2175 1.36487 87.7934C1.185 89.8929 0.998932 91.9862 0.819061 94.0856C3.35583 93.9742 5.47702 96.0179 5.47702 98.4642C5.47702 100.805 3.52948 102.799 1.09195 102.843V107.766C3.56671 108.355 5.18552 110.646 4.92502 112.962C4.70172 114.925 3.16354 116.604 1.09195 117.062V122.531C3.21936 123.237 4.73276 125.076 4.92502 127.182C5.15451 129.702 3.45508 132.161 0.819061 132.923V137.846C2.9527 138.193 4.6087 139.772 4.92502 141.673C5.32819 144.058 3.57913 146.603 0.819061 147.142C0.726013 149.056 0.639191 150.969 0.546143 152.883C3.18216 152.883 5.26617 155.069 5.20416 157.534C5.13593 160.11 2.74179 162.228 0.000335693 161.913C0.0933838 163.188 0.180176 164.464 0.273224 165.74C19.8108 165.467 39.3483 165.195 58.8859 164.922C59.3572 153.286 69.0826 144.064 80.526 144.138C92.2672 144.219 102.011 154.06 101.887 166.019C189.074 165.839 276.261 165.653 363.448 165.474V160.823C360.998 160.903 358.952 159.503 358.517 157.813C357.959 155.639 359.969 152.604 363.448 152.344C363.355 150.431 363.268 148.517 363.175 146.603C360.453 146.808 358.214 144.906 357.972 142.776C357.693 140.348 360.012 137.691 363.175 137.852C363.268 135.939 363.355 134.025 363.448 132.111C360.744 132.13 358.573 130.322 358.245 128.284C357.835 125.763 360.223 122.784 363.721 122.815C363.814 120.902 363.901 118.988 363.994 117.074C361.215 117.341 358.865 115.198 358.79 112.696C358.716 110.107 361.11 107.779 363.994 108.045C363.901 106.038 363.814 104.032 363.721 102.031C360.986 102.298 358.716 100.087 358.79 97.6529C358.865 95.3119 361.091 93.2867 363.721 93.553C363.628 91.4536 363.541 89.3603 363.448 87.2608C360.626 87.4405 358.369 85.0995 358.517 82.6098C358.654 80.2998 360.837 78.3242 363.448 78.51C363.541 76.3238 363.628 74.1315 363.721 71.9453C361.098 72.3912 358.722 70.4837 358.517 68.118C358.307 65.6841 360.446 63.3617 363.175 63.4669C363.355 61.3675 363.541 59.2742 363.721 57.1747C361.11 57.5339 358.784 55.676 358.517 53.3474C358.232 50.864 360.353 48.4053 363.175 48.4239C363.082 46.6031 362.996 44.7761 362.903 42.9554C360.279 42.9306 358.232 41.2213 357.972 39.4005C357.649 37.1586 359.987 34.347 363.448 34.477C363.355 32.5633 363.268 30.6497 363.175 28.736C360.173 28.9775 357.773 26.7109 357.699 24.3575C357.618 21.8307 360.223 19.2915 363.448 19.7065C363.541 17.7928 363.628 15.8791 363.721 13.9655C360.843 14.399 358.307 12.188 358.245 9.58693C358.182 7.0044 360.57 4.67579 363.448 4.9359C363.355 3.29473 363.268 1.65356 363.175 0.0123862V0Z" fill="url(#paint0_linear_648_3465)"/>
<defs>
<linearGradient id="paint0_linear_648_3465" x1="363.994" y1="94" x2="6.99416" y2="89" gradientUnits="userSpaceOnUse">
<stop stop-color="#FFBF00"/>
<stop offset="1" stop-color="#FF1A1A"/>
</linearGradient>
</defs>
</svg>
