<svg width="23" height="20" viewBox="0 0 23 20" fill="none" xmlns="http://www.w3.org/2000/svg">
<path d="M11.5 20C10.6727 19.9993 9.87947 19.6715 9.29481 19.0887L2.4192 12.2537C1.31793 11.1839 0.548979 9.82135 0.204085 8.3285C-0.140809 6.83564 -0.0470908 5.27551 0.474061 3.83422C0.794307 2.84839 1.38286 1.97027 2.17431 1.29749C2.96576 0.6247 3.9291 0.183595 4.95725 0.023202C6.23408 -0.0715451 7.51321 0.174003 8.66313 0.734597C9.81304 1.29519 10.7922 2.1506 11.5 3.21286C12.1973 2.14518 13.1715 1.28506 14.3196 0.723558C15.4678 0.162056 16.747 -0.0799348 18.0219 0.023202C19.0538 0.180038 20.0216 0.619535 20.817 1.29256C21.6124 1.96558 22.2041 2.8456 22.5259 3.83422C23.0471 5.27551 23.1408 6.83564 22.7959 8.3285C22.451 9.82135 21.6821 11.1839 20.5808 12.2537L13.7052 19.0887C13.1205 19.6715 12.3273 19.9993 11.5 20ZM5.71658 2.04263C5.55727 2.032 5.39741 2.032 5.2381 2.04263C4.57806 2.15963 3.96414 2.45836 3.46592 2.90497C2.96769 3.35158 2.60509 3.92821 2.4192 4.5695C2.03705 5.63669 1.97317 6.79115 2.23525 7.89367C2.49733 8.99619 3.07419 9.99969 3.89626 10.7831L10.7615 17.6285C10.8582 17.7255 10.9732 17.8026 11.1 17.8552C11.2267 17.9077 11.3627 17.9348 11.5 17.9348C11.6373 17.9348 11.7733 17.9077 11.9 17.8552C12.0268 17.8026 12.1418 17.7255 12.2385 17.6285L19.1037 10.7831C19.9258 9.99969 20.5027 8.99619 20.7648 7.89367C21.0268 6.79115 20.9629 5.63669 20.5808 4.5695C20.3884 3.93122 20.0204 3.35924 19.5186 2.9182C19.0168 2.47716 18.4011 2.18464 17.7411 2.0737C16.8308 2.02654 15.9242 2.22132 15.1145 2.63807C14.3047 3.05482 13.6208 3.67854 13.1331 4.44523C12.9389 4.69855 12.6887 4.90386 12.4018 5.04518C12.115 5.1865 11.7992 5.26002 11.4792 5.26002C11.1591 5.26002 10.8434 5.1865 10.5565 5.04518C10.2697 4.90386 10.0195 4.69855 9.8253 4.44523C9.37308 3.75628 8.76684 3.18088 8.05403 2.76407C7.34123 2.34725 6.54121 2.10033 5.71658 2.04263Z" fill="black"/>
</svg>
