<svg width="225" height="69" viewBox="0 0 225 69" fill="none" xmlns="http://www.w3.org/2000/svg">
<path d="M70.25 12H20.25C9.75659 12 1.25 20.5066 1.25 31V48C1.25 58.4934 9.75659 67 20.25 67H204.25C214.743 67 223.25 58.4934 223.25 48V31C223.25 20.5066 214.743 12 204.25 12H151.25" stroke="white" stroke-width="2.5" stroke-linecap="round"/>
<path d="M97.7159 9H95.9545C95.8504 8.49337 95.6681 8.0483 95.4077 7.66477C95.152 7.28125 94.8395 6.95928 94.4702 6.69886C94.1056 6.43371 93.7008 6.23485 93.2557 6.10227C92.8106 5.9697 92.3466 5.90341 91.8636 5.90341C90.983 5.90341 90.1851 6.12595 89.4702 6.57102C88.7599 7.0161 88.1941 7.67188 87.7727 8.53835C87.3561 9.40483 87.1477 10.4678 87.1477 11.7273C87.1477 12.9867 87.3561 14.0497 87.7727 14.9162C88.1941 15.7827 88.7599 16.4384 89.4702 16.8835C90.1851 17.3286 90.983 17.5511 91.8636 17.5511C92.3466 17.5511 92.8106 17.4848 93.2557 17.3523C93.7008 17.2197 94.1056 17.0232 94.4702 16.7628C94.8395 16.4976 95.152 16.1733 95.4077 15.7898C95.6681 15.4015 95.8504 14.9564 95.9545 14.4545H97.7159C97.5833 15.1979 97.3419 15.8632 96.9915 16.4503C96.6411 17.0374 96.2055 17.5369 95.6847 17.9489C95.1638 18.3561 94.5791 18.6662 93.9304 18.8793C93.2865 19.0923 92.5975 19.1989 91.8636 19.1989C90.6231 19.1989 89.5199 18.8958 88.554 18.2898C87.5881 17.6837 86.8281 16.822 86.2741 15.7045C85.7202 14.5871 85.4432 13.2614 85.4432 11.7273C85.4432 10.1932 85.7202 8.86742 86.2741 7.75C86.8281 6.63258 87.5881 5.77083 88.554 5.16477C89.5199 4.55871 90.6231 4.25568 91.8636 4.25568C92.5975 4.25568 93.2865 4.36222 93.9304 4.57528C94.5791 4.78835 95.1638 5.10085 95.6847 5.51278C96.2055 5.91998 96.6411 6.41714 96.9915 7.00426C97.3419 7.58665 97.5833 8.25189 97.7159 9ZM104.767 19.2273C103.782 19.2273 102.918 18.9929 102.174 18.5241C101.436 18.0554 100.858 17.3996 100.441 16.5568C100.029 15.714 99.8235 14.7292 99.8235 13.6023C99.8235 12.4659 100.029 11.474 100.441 10.6264C100.858 9.77888 101.436 9.12074 102.174 8.65199C102.918 8.18324 103.782 7.94886 104.767 7.94886C105.752 7.94886 106.613 8.18324 107.352 8.65199C108.095 9.12074 108.673 9.77888 109.085 10.6264C109.502 11.474 109.71 12.4659 109.71 13.6023C109.71 14.7292 109.502 15.714 109.085 16.5568C108.673 17.3996 108.095 18.0554 107.352 18.5241C106.613 18.9929 105.752 19.2273 104.767 19.2273ZM104.767 17.7216C105.515 17.7216 106.13 17.5298 106.613 17.1463C107.096 16.7628 107.454 16.2585 107.686 15.6335C107.918 15.0085 108.034 14.3314 108.034 13.6023C108.034 12.8731 107.918 12.1937 107.686 11.5639C107.454 10.9342 107.096 10.4252 106.613 10.0369C106.13 9.64867 105.515 9.45455 104.767 9.45455C104.019 9.45455 103.403 9.64867 102.92 10.0369C102.437 10.4252 102.08 10.9342 101.848 11.5639C101.616 12.1937 101.5 12.8731 101.5 13.6023C101.5 14.3314 101.616 15.0085 101.848 15.6335C102.08 16.2585 102.437 16.7628 102.92 17.1463C103.403 17.5298 104.019 17.7216 104.767 17.7216ZM116.388 19.2273C115.479 19.2273 114.676 18.9976 113.98 18.5384C113.284 18.0743 112.74 17.4209 112.347 16.5781C111.954 15.7306 111.757 14.7292 111.757 13.5739C111.757 12.428 111.954 11.4337 112.347 10.5909C112.74 9.74811 113.286 9.09706 113.987 8.63778C114.688 8.1785 115.498 7.94886 116.416 7.94886C117.126 7.94886 117.688 8.06723 118.099 8.30398C118.516 8.53598 118.833 8.80114 119.051 9.09943C119.274 9.39299 119.446 9.63447 119.57 9.82386H119.712V4.45455H121.388V19H119.768V17.3239H119.57C119.446 17.5227 119.271 17.7737 119.044 18.0767C118.817 18.375 118.492 18.6425 118.071 18.8793C117.65 19.1113 117.089 19.2273 116.388 19.2273ZM116.615 17.7216C117.287 17.7216 117.856 17.5464 118.32 17.196C118.784 16.8409 119.136 16.3509 119.378 15.7259C119.619 15.0961 119.74 14.3693 119.74 13.5455C119.74 12.7311 119.622 12.0185 119.385 11.4077C119.148 10.7921 118.798 10.3139 118.334 9.97301C117.87 9.62737 117.297 9.45455 116.615 9.45455C115.905 9.45455 115.313 9.63684 114.839 10.0014C114.371 10.3613 114.018 10.8513 113.781 11.4716C113.549 12.0871 113.433 12.7784 113.433 13.5455C113.433 14.322 113.552 15.0275 113.788 15.6619C114.03 16.2917 114.385 16.7936 114.854 17.1676C115.327 17.5369 115.914 17.7216 116.615 17.7216ZM129.264 19.2273C128.213 19.2273 127.306 18.9953 126.544 18.5312C125.786 18.0625 125.202 17.4091 124.79 16.571C124.383 15.7282 124.179 14.7481 124.179 13.6307C124.179 12.5133 124.383 11.5284 124.79 10.6761C125.202 9.81913 125.775 9.15152 126.509 8.6733C127.247 8.19034 128.109 7.94886 129.094 7.94886C129.662 7.94886 130.223 8.04356 130.777 8.23295C131.331 8.42235 131.835 8.73011 132.29 9.15625C132.744 9.57765 133.107 10.1364 133.376 10.8324C133.646 11.5284 133.781 12.3854 133.781 13.4034V14.1136H125.372V12.6648H132.077C132.077 12.0492 131.954 11.5 131.707 11.017C131.466 10.5341 131.12 10.1529 130.67 9.87358C130.225 9.59422 129.7 9.45455 129.094 9.45455C128.426 9.45455 127.848 9.62026 127.361 9.9517C126.878 10.2784 126.506 10.7045 126.246 11.2301C125.985 11.7557 125.855 12.3191 125.855 12.9205V13.8864C125.855 14.7102 125.997 15.4086 126.281 15.9815C126.57 16.5497 126.97 16.983 127.482 17.2812C127.993 17.5748 128.587 17.7216 129.264 17.7216C129.705 17.7216 130.102 17.66 130.457 17.5369C130.817 17.4091 131.127 17.2197 131.388 16.9688C131.648 16.7131 131.849 16.3958 131.991 16.017L133.611 16.4716C133.44 17.0208 133.154 17.5038 132.751 17.9205C132.349 18.3324 131.852 18.6544 131.26 18.8864C130.668 19.1136 130.003 19.2273 129.264 19.2273Z" fill="white"/>
</svg>
