<svg width="15" height="20" viewBox="0 0 15 20" fill="none" xmlns="http://www.w3.org/2000/svg">
<path d="M11.6667 5V4.16667C11.6667 1.86542 9.80125 0 7.5 0C5.19875 0 3.33333 1.86542 3.33333 4.16667V5H0V17.5C0 18.8813 1.11875 20 2.5 20H12.5C13.8812 20 15 18.8813 15 17.5V5H11.6667ZM5 4.16667C5 2.78604 6.11937 1.66667 7.5 1.66667C8.88062 1.66667 10 2.78604 10 4.16667V5H5V4.16667ZM13.3333 17.5C13.3333 17.9604 12.9604 18.3333 12.5 18.3333H2.5C2.03958 18.3333 1.66667 17.9604 1.66667 17.5V6.66667H13.3333V17.5Z" fill="black"/>
</svg>
