<svg width="335" height="46" viewBox="0 0 335 46" fill="none" xmlns="http://www.w3.org/2000/svg">
<rect width="335" height="46" rx="23" fill="white"/>
<path d="M26.4326 30.24C25.4059 30.24 24.5059 30.06 23.7326 29.7C22.9592 29.3267 22.3592 28.8067 21.9326 28.14C21.5059 27.4733 21.2926 26.6933 21.2926 25.8H23.3926C23.4059 26.3067 23.5259 26.7733 23.7526 27.2C23.9926 27.6133 24.3326 27.9467 24.7726 28.2C25.2259 28.44 25.7792 28.56 26.4326 28.56C26.9926 28.56 27.4726 28.4667 27.8726 28.28C28.2859 28.0933 28.5992 27.84 28.8126 27.52C29.0259 27.1867 29.1326 26.8067 29.1326 26.38C29.1326 25.8867 29.0192 25.48 28.7926 25.16C28.5659 24.84 28.2592 24.58 27.8726 24.38C27.4992 24.1667 27.0592 23.98 26.5526 23.82C26.0592 23.66 25.5392 23.4867 24.9926 23.3C23.8859 22.94 23.0592 22.4733 22.5126 21.9C21.9792 21.3267 21.7126 20.58 21.7126 19.66C21.7126 18.8733 21.8992 18.1933 22.2726 17.62C22.6459 17.0333 23.1659 16.58 23.8326 16.26C24.5126 15.9267 25.3126 15.76 26.2326 15.76C27.1392 15.76 27.9326 15.9267 28.6126 16.26C29.2926 16.5933 29.8259 17.0533 30.2126 17.64C30.5992 18.2267 30.7926 18.9133 30.7926 19.7H28.6726C28.6726 19.34 28.5792 18.9867 28.3926 18.64C28.2059 18.2933 27.9259 18.0133 27.5526 17.8C27.1792 17.5733 26.7192 17.46 26.1726 17.46C25.7192 17.4467 25.3126 17.52 24.9526 17.68C24.5926 17.84 24.3126 18.0733 24.1126 18.38C23.9126 18.6867 23.8126 19.0533 23.8126 19.48C23.8126 19.9067 23.8992 20.2533 24.0726 20.52C24.2592 20.7733 24.5259 20.9933 24.8726 21.18C25.2192 21.3667 25.6192 21.54 26.0726 21.7C26.5392 21.8467 27.0526 22.0133 27.6126 22.2C28.3059 22.4267 28.9192 22.7067 29.4526 23.04C29.9992 23.36 30.4259 23.78 30.7326 24.3C31.0526 24.8067 31.2126 25.46 31.2126 26.26C31.2126 26.9533 31.0326 27.6 30.6726 28.2C30.3126 28.8 29.7792 29.2933 29.0726 29.68C28.3659 30.0533 27.4859 30.24 26.4326 30.24ZM37.4509 30.24C36.4909 30.24 35.6375 30.02 34.8909 29.58C34.1442 29.14 33.5575 28.5267 33.1309 27.74C32.7175 26.9533 32.5109 26.04 32.5109 25C32.5109 23.9333 32.7175 23.0067 33.1309 22.22C33.5575 21.42 34.1442 20.8 34.8909 20.36C35.6375 19.9067 36.5042 19.68 37.4909 19.68C38.4775 19.68 39.3242 19.9 40.0309 20.34C40.7375 20.78 41.2842 21.3667 41.6709 22.1C42.0575 22.82 42.2509 23.62 42.2509 24.5C42.2509 24.6333 42.2442 24.78 42.2309 24.94C42.2309 25.0867 42.2242 25.2533 42.2109 25.44H33.9709V24.02H40.2509C40.2109 23.18 39.9309 22.5267 39.4109 22.06C38.8909 21.58 38.2442 21.34 37.4709 21.34C36.9242 21.34 36.4242 21.4667 35.9709 21.72C35.5175 21.96 35.1509 22.32 34.8709 22.8C34.6042 23.2667 34.4709 23.86 34.4709 24.58V25.14C34.4709 25.8867 34.6042 26.52 34.8709 27.04C35.1509 27.5467 35.5175 27.9333 35.9709 28.2C36.4242 28.4533 36.9175 28.58 37.4509 28.58C38.0909 28.58 38.6175 28.44 39.0309 28.16C39.4442 27.88 39.7509 27.5 39.9509 27.02H41.9509C41.7775 27.6333 41.4842 28.1867 41.0709 28.68C40.6575 29.16 40.1442 29.54 39.5309 29.82C38.9309 30.1 38.2375 30.24 37.4509 30.24ZM47.2129 30.24C46.3862 30.24 45.6996 30.1 45.1529 29.82C44.6062 29.54 44.1996 29.1667 43.9329 28.7C43.6662 28.22 43.5329 27.7067 43.5329 27.16C43.5329 26.4933 43.7062 25.9267 44.0529 25.46C44.3996 24.98 44.8929 24.6133 45.5329 24.36C46.1729 24.1067 46.9396 23.98 47.8329 23.98H50.4529C50.4529 23.3933 50.3662 22.9067 50.1929 22.52C50.0196 22.1333 49.7596 21.8467 49.4129 21.66C49.0796 21.46 48.6529 21.36 48.1329 21.36C47.5329 21.36 47.0196 21.5067 46.5929 21.8C46.1662 22.08 45.8996 22.5 45.7929 23.06H43.7929C43.8729 22.3533 44.1129 21.7533 44.5129 21.26C44.9262 20.7533 45.4529 20.3667 46.0929 20.1C46.7329 19.82 47.4129 19.68 48.1329 19.68C49.0796 19.68 49.8729 19.8467 50.5129 20.18C51.1529 20.5133 51.6329 20.9867 51.9529 21.6C52.2862 22.2 52.4529 22.92 52.4529 23.76V30H50.7129L50.5529 28.3C50.4062 28.5667 50.2329 28.82 50.0329 29.06C49.8329 29.3 49.5929 29.5067 49.3129 29.68C49.0462 29.8533 48.7329 29.9867 48.3729 30.08C48.0262 30.1867 47.6396 30.24 47.2129 30.24ZM47.5929 28.62C48.0196 28.62 48.4062 28.5333 48.7529 28.36C49.0996 28.1867 49.3929 27.9533 49.6329 27.66C49.8862 27.3533 50.0729 27.0133 50.1929 26.64C50.3262 26.2533 50.3996 25.86 50.4129 25.46V25.4H48.0329C47.4596 25.4 46.9929 25.4733 46.6329 25.62C46.2862 25.7533 46.0329 25.94 45.8729 26.18C45.7129 26.42 45.6329 26.7 45.6329 27.02C45.6329 27.3533 45.7062 27.64 45.8529 27.88C46.0129 28.1067 46.2396 28.2867 46.5329 28.42C46.8262 28.5533 47.1796 28.62 47.5929 28.62ZM54.4057 30V19.92H56.2057L56.3857 21.82C56.6124 21.3667 56.9057 20.9867 57.2657 20.68C57.6257 20.36 58.0457 20.1133 58.5257 19.94C59.019 19.7667 59.579 19.68 60.2057 19.68V21.8H59.4857C59.0724 21.8 58.679 21.8533 58.3057 21.96C57.9324 22.0533 57.599 22.22 57.3057 22.46C57.0257 22.7 56.8057 23.0267 56.6457 23.44C56.4857 23.8533 56.4057 24.3667 56.4057 24.98V30H54.4057ZM65.8095 30.24C64.8361 30.24 63.9695 30.02 63.2095 29.58C62.4495 29.1267 61.8495 28.5067 61.4095 27.72C60.9828 26.9333 60.7695 26.02 60.7695 24.98C60.7695 23.9267 60.9828 23.0067 61.4095 22.22C61.8495 21.42 62.4495 20.8 63.2095 20.36C63.9695 19.9067 64.8361 19.68 65.8095 19.68C67.0361 19.68 68.0628 20 68.8895 20.64C69.7161 21.28 70.2428 22.1467 70.4695 23.24H68.3895C68.2561 22.6533 67.9495 22.2 67.4695 21.88C67.0028 21.56 66.4428 21.4 65.7895 21.4C65.2561 21.4 64.7628 21.54 64.3095 21.82C63.8561 22.0867 63.4895 22.4867 63.2095 23.02C62.9428 23.54 62.8095 24.1867 62.8095 24.96C62.8095 25.5333 62.8895 26.0467 63.0495 26.5C63.2095 26.94 63.4228 27.3133 63.6895 27.62C63.9695 27.9267 64.2895 28.16 64.6495 28.32C65.0095 28.4667 65.3895 28.54 65.7895 28.54C66.2295 28.54 66.6228 28.4733 66.9695 28.34C67.3295 28.1933 67.6295 27.98 67.8695 27.7C68.1228 27.42 68.2961 27.0867 68.3895 26.7H70.4695C70.2428 27.7667 69.7161 28.6267 68.8895 29.28C68.0628 29.92 67.0361 30.24 65.8095 30.24ZM72.2096 30V15.6H74.2096V21.56C74.5429 20.9733 75.0029 20.5133 75.5896 20.18C76.1896 19.8467 76.8496 19.68 77.5696 19.68C78.3696 19.68 79.0563 19.8467 79.6296 20.18C80.2029 20.5 80.6429 20.9867 80.9496 21.64C81.2563 22.28 81.4096 23.0867 81.4096 24.06V30H79.4296V24.26C79.4296 23.3267 79.2296 22.62 78.8296 22.14C78.4296 21.6467 77.8363 21.4 77.0496 21.4C76.5163 21.4 76.0363 21.5267 75.6096 21.78C75.1829 22.0333 74.8429 22.4067 74.5896 22.9C74.3363 23.38 74.2096 23.9667 74.2096 24.66V30H72.2096Z" fill="#757474"/>
<path opacity="0.49" d="M315.285 35.2847C315.058 35.5114 314.789 35.6913 314.493 35.8141C314.196 35.9368 313.879 36 313.558 36C313.238 36 312.92 35.9368 312.624 35.8141C312.328 35.6913 312.059 35.5114 311.832 35.2847L307.523 30.9759C305.751 32.1104 303.656 32.7892 301.395 32.7892C295.102 32.7892 290 27.6877 290 21.3946C290 15.1015 295.102 10 301.395 10C307.688 10 312.789 15.1015 312.789 21.3946C312.789 23.6556 312.11 25.7506 310.976 27.5233L315.285 31.8321C315.511 32.0587 315.691 32.3279 315.814 32.6241C315.937 32.9203 316 33.2377 316 33.5584C316 33.879 315.937 34.1965 315.814 34.4927C315.691 34.7889 315.511 35.058 315.285 35.2847ZM301.395 13.2556C296.9 13.2556 293.256 16.8986 293.256 21.3946C293.256 25.8906 296.9 29.5336 301.395 29.5336C305.891 29.5336 309.534 25.8906 309.534 21.3946C309.534 16.8986 305.891 13.2556 301.395 13.2556Z" fill="black"/>
</svg>
