<svg xmlns="http://www.w3.org/2000/svg" xmlns:xlink="http://www.w3.org/1999/xlink" width="50" zoomAndPan="magnify" viewBox="0 0 37.5 37.499999" height="50" preserveAspectRatio="xMidYMid meet" version="1.0"><defs><clipPath id="d59fe7b3fb"><path d="M 0.636719 7.820312 L 36.160156 7.820312 L 36.160156 23.363281 L 0.636719 23.363281 Z M 0.636719 7.820312 " clip-rule="nonzero"/></clipPath><clipPath id="d39d4fb978"><path d="M 0.636719 14 L 5 14 L 5 21 L 0.636719 21 Z M 0.636719 14 " clip-rule="nonzero"/></clipPath><clipPath id="f2bff78dec"><path d="M 0.636719 10 L 5 10 L 5 17 L 0.636719 17 Z M 0.636719 10 " clip-rule="nonzero"/></clipPath><clipPath id="4ae5bab6d9"><path d="M 32 10 L 36.160156 10 L 36.160156 17 L 32 17 Z M 32 10 " clip-rule="nonzero"/></clipPath><clipPath id="f9718d335c"><path d="M 32 14 L 36.160156 14 L 36.160156 21 L 32 21 Z M 32 14 " clip-rule="nonzero"/></clipPath></defs><g clip-path="url(#d59fe7b3fb)"><path fill="#e1002a" d="M 35.003906 15.59375 C 35.003906 15.445312 35.03125 15.304688 35.089844 15.167969 C 35.144531 15.03125 35.226562 14.910156 35.332031 14.804688 C 35.433594 14.699219 35.554688 14.621094 35.691406 14.5625 C 35.828125 14.507812 35.96875 14.480469 36.117188 14.480469 L 36.117188 9.3125 C 36.117188 9.113281 36.078125 8.921875 36.003906 8.738281 C 35.925781 8.554688 35.816406 8.394531 35.675781 8.253906 C 35.535156 8.113281 35.375 8.007812 35.191406 7.929688 C 35.007812 7.855469 34.816406 7.816406 34.617188 7.820312 L 2.160156 7.820312 C 1.964844 7.820312 1.773438 7.855469 1.589844 7.933594 C 1.40625 8.007812 1.246094 8.117188 1.105469 8.257812 C 0.96875 8.398438 0.859375 8.558594 0.785156 8.742188 C 0.707031 8.925781 0.671875 9.117188 0.671875 9.3125 L 0.671875 14.480469 C 0.816406 14.480469 0.960938 14.507812 1.097656 14.5625 C 1.230469 14.621094 1.351562 14.699219 1.457031 14.804688 C 1.5625 14.910156 1.640625 15.03125 1.699219 15.167969 C 1.753906 15.304688 1.785156 15.445312 1.785156 15.59375 C 1.785156 15.742188 1.753906 15.882812 1.699219 16.019531 C 1.644531 16.15625 1.5625 16.277344 1.457031 16.382812 C 1.351562 16.488281 1.234375 16.566406 1.097656 16.625 C 0.960938 16.679688 0.816406 16.710938 0.671875 16.710938 L 0.671875 21.875 C 0.671875 22.070312 0.710938 22.261719 0.785156 22.445312 C 0.863281 22.625 0.96875 22.789062 1.109375 22.925781 C 1.25 23.066406 1.410156 23.171875 1.59375 23.25 C 1.773438 23.324219 1.964844 23.363281 2.160156 23.363281 L 34.617188 23.363281 C 34.816406 23.363281 35.007812 23.324219 35.1875 23.25 C 35.371094 23.171875 35.53125 23.0625 35.671875 22.925781 C 35.8125 22.785156 35.917969 22.621094 35.996094 22.4375 C 36.070312 22.257812 36.109375 22.066406 36.109375 21.867188 L 36.109375 16.710938 C 35.960938 16.707031 35.820312 16.679688 35.6875 16.621094 C 35.550781 16.566406 35.429688 16.484375 35.328125 16.378906 C 35.222656 16.273438 35.144531 16.152344 35.089844 16.019531 C 35.03125 15.882812 35.003906 15.738281 35.003906 15.59375 Z M 35.003906 15.59375 " fill-opacity="1" fill-rule="nonzero"/></g><path fill="#e1002a" d="M 2.160156 22.40625 C 2.015625 22.40625 1.886719 22.355469 1.785156 22.25 C 1.679688 22.148438 1.625 22.023438 1.625 21.875 L 1.625 17.433594 C 1.964844 17.253906 2.238281 17 2.4375 16.667969 C 2.636719 16.335938 2.738281 15.980469 2.738281 15.59375 C 2.738281 15.207031 2.636719 14.847656 2.4375 14.519531 C 2.238281 14.1875 1.964844 13.933594 1.625 13.757812 L 1.625 9.3125 C 1.625 9.164062 1.675781 9.039062 1.78125 8.933594 C 1.886719 8.828125 2.011719 8.777344 2.160156 8.777344 L 34.617188 8.777344 C 34.765625 8.777344 34.894531 8.828125 35 8.933594 C 35.101562 9.039062 35.15625 9.164062 35.15625 9.3125 L 35.15625 13.757812 C 34.8125 13.933594 34.542969 14.191406 34.34375 14.519531 C 34.144531 14.851562 34.046875 15.207031 34.046875 15.59375 C 34.046875 15.980469 34.144531 16.339844 34.34375 16.667969 C 34.542969 17 34.8125 17.253906 35.15625 17.433594 L 35.15625 21.875 C 35.152344 22.023438 35.101562 22.148438 34.996094 22.25 C 34.890625 22.355469 34.765625 22.40625 34.617188 22.40625 Z M 2.160156 22.40625 " fill-opacity="1" fill-rule="nonzero"/><g clip-path="url(#d39d4fb978)"><path stroke-linecap="round" transform="matrix(0.238434, 0, 0, 0.239119, 0.670495, 7.81905)" fill="none" stroke-linejoin="miter" d="M 4.003224 41.694701 L 4.003224 40.208127 C 4.445563 39.979423 4.87152 39.701712 5.26471 39.391328 " stroke="#231f20" stroke-width="0.75" stroke-opacity="1" stroke-miterlimit="10"/></g><path fill="#231f20" d="M 2.355469 16.632812 C 2.484375 16.417969 2.574219 16.191406 2.617188 15.945312 C 2.628906 15.886719 2.664062 15.863281 2.722656 15.875 C 2.78125 15.886719 2.804688 15.917969 2.792969 15.980469 C 2.746094 16.246094 2.648438 16.496094 2.507812 16.726562 C 2.476562 16.777344 2.433594 16.785156 2.382812 16.753906 C 2.332031 16.722656 2.324219 16.683594 2.355469 16.632812 Z M 2.613281 15.222656 C 2.566406 14.976562 2.476562 14.75 2.34375 14.539062 C 2.3125 14.488281 2.320312 14.445312 2.371094 14.414062 C 2.421875 14.382812 2.464844 14.390625 2.496094 14.441406 C 2.640625 14.671875 2.738281 14.921875 2.789062 15.1875 C 2.800781 15.246094 2.777344 15.28125 2.71875 15.292969 C 2.660156 15.304688 2.625 15.28125 2.613281 15.222656 Z M 2.613281 15.222656 " fill-opacity="1" fill-rule="nonzero"/><g clip-path="url(#f2bff78dec)"><path stroke-linecap="round" transform="matrix(0.238434, 0, 0, 0.239119, 0.670495, 7.81905)" fill="none" stroke-linejoin="miter" d="M 5.26471 25.636433 C 4.87152 25.32605 4.445563 25.064674 4.003224 24.83597 L 4.003224 23.33306 " stroke="#231f20" stroke-width="0.75" stroke-opacity="1" stroke-miterlimit="10"/></g><path fill="#231f20" d="M 1.535156 12.679688 L 1.535156 11.957031 C 1.535156 11.898438 1.566406 11.867188 1.625 11.867188 C 1.683594 11.867188 1.714844 11.898438 1.714844 11.957031 L 1.714844 12.679688 C 1.714844 12.738281 1.683594 12.769531 1.625 12.769531 C 1.566406 12.769531 1.535156 12.738281 1.535156 12.679688 Z M 1.535156 11.238281 L 1.535156 10.519531 C 1.535156 10.457031 1.566406 10.429688 1.625 10.429688 C 1.683594 10.429688 1.714844 10.457031 1.714844 10.519531 L 1.714844 11.238281 C 1.714844 11.296875 1.683594 11.328125 1.625 11.328125 C 1.566406 11.328125 1.535156 11.296875 1.535156 11.238281 Z M 1.535156 9.800781 L 1.535156 9.3125 C 1.535156 9.214844 1.558594 9.117188 1.601562 9.03125 C 1.628906 8.976562 1.667969 8.964844 1.722656 8.988281 C 1.777344 9.015625 1.789062 9.058594 1.761719 9.109375 C 1.730469 9.175781 1.714844 9.242188 1.714844 9.3125 L 1.714844 9.800781 C 1.714844 9.859375 1.683594 9.886719 1.625 9.886719 C 1.566406 9.886719 1.535156 9.859375 1.535156 9.800781 Z M 2.351562 8.6875 L 3.070312 8.6875 C 3.128906 8.6875 3.160156 8.714844 3.160156 8.777344 C 3.160156 8.835938 3.128906 8.863281 3.070312 8.863281 L 2.351562 8.863281 C 2.292969 8.863281 2.265625 8.835938 2.265625 8.777344 C 2.265625 8.714844 2.292969 8.6875 2.351562 8.6875 Z M 3.789062 8.6875 L 4.507812 8.6875 C 4.566406 8.6875 4.597656 8.714844 4.597656 8.777344 C 4.597656 8.835938 4.566406 8.863281 4.507812 8.863281 L 3.789062 8.863281 C 3.730469 8.863281 3.699219 8.835938 3.699219 8.777344 C 3.699219 8.714844 3.730469 8.6875 3.789062 8.6875 Z M 5.222656 8.6875 L 5.941406 8.6875 C 6 8.6875 6.03125 8.714844 6.03125 8.777344 C 6.03125 8.835938 6 8.863281 5.941406 8.863281 L 5.222656 8.863281 C 5.164062 8.863281 5.132812 8.835938 5.132812 8.777344 C 5.132812 8.714844 5.164062 8.6875 5.222656 8.6875 Z M 6.660156 8.6875 L 7.378906 8.6875 C 7.4375 8.6875 7.464844 8.714844 7.464844 8.777344 C 7.464844 8.835938 7.4375 8.863281 7.378906 8.863281 L 6.660156 8.863281 C 6.601562 8.863281 6.570312 8.835938 6.570312 8.777344 C 6.570312 8.714844 6.601562 8.6875 6.660156 8.6875 Z M 8.09375 8.6875 L 8.8125 8.6875 C 8.871094 8.6875 8.902344 8.714844 8.902344 8.777344 C 8.902344 8.835938 8.871094 8.863281 8.8125 8.863281 L 8.09375 8.863281 C 8.035156 8.863281 8.003906 8.835938 8.003906 8.777344 C 8.003906 8.714844 8.035156 8.6875 8.09375 8.6875 Z M 9.53125 8.6875 L 10.246094 8.6875 C 10.308594 8.6875 10.335938 8.714844 10.335938 8.777344 C 10.335938 8.835938 10.308594 8.863281 10.246094 8.863281 L 9.53125 8.863281 C 9.46875 8.863281 9.441406 8.835938 9.441406 8.777344 C 9.441406 8.714844 9.46875 8.6875 9.53125 8.6875 Z M 10.964844 8.6875 L 11.683594 8.6875 C 11.742188 8.6875 11.773438 8.714844 11.773438 8.777344 C 11.773438 8.835938 11.742188 8.863281 11.683594 8.863281 L 10.964844 8.863281 C 10.90625 8.863281 10.875 8.835938 10.875 8.777344 C 10.875 8.714844 10.90625 8.6875 10.964844 8.6875 Z M 12.402344 8.6875 L 13.117188 8.6875 C 13.179688 8.6875 13.207031 8.714844 13.207031 8.777344 C 13.207031 8.835938 13.179688 8.863281 13.117188 8.863281 L 12.402344 8.863281 C 12.339844 8.863281 12.3125 8.835938 12.3125 8.777344 C 12.3125 8.714844 12.339844 8.6875 12.402344 8.6875 Z M 13.835938 8.6875 L 14.554688 8.6875 C 14.613281 8.6875 14.644531 8.714844 14.644531 8.777344 C 14.644531 8.835938 14.613281 8.863281 14.554688 8.863281 L 13.835938 8.863281 C 13.777344 8.863281 13.746094 8.835938 13.746094 8.777344 C 13.746094 8.714844 13.777344 8.6875 13.835938 8.6875 Z M 15.273438 8.6875 L 15.988281 8.6875 C 16.050781 8.6875 16.078125 8.714844 16.078125 8.777344 C 16.078125 8.835938 16.050781 8.863281 15.988281 8.863281 L 15.273438 8.863281 C 15.210938 8.863281 15.183594 8.835938 15.183594 8.777344 C 15.183594 8.714844 15.210938 8.6875 15.273438 8.6875 Z M 16.707031 8.6875 L 17.425781 8.6875 C 17.484375 8.6875 17.515625 8.714844 17.515625 8.777344 C 17.515625 8.835938 17.484375 8.863281 17.425781 8.863281 L 16.707031 8.863281 C 16.648438 8.863281 16.617188 8.835938 16.617188 8.777344 C 16.617188 8.714844 16.648438 8.6875 16.707031 8.6875 Z M 18.140625 8.6875 L 18.859375 8.6875 C 18.917969 8.6875 18.949219 8.714844 18.949219 8.777344 C 18.949219 8.835938 18.917969 8.863281 18.859375 8.863281 L 18.140625 8.863281 C 18.082031 8.863281 18.054688 8.835938 18.054688 8.777344 C 18.054688 8.714844 18.082031 8.6875 18.140625 8.6875 Z M 19.578125 8.6875 L 20.296875 8.6875 C 20.355469 8.6875 20.386719 8.714844 20.386719 8.777344 C 20.386719 8.835938 20.355469 8.863281 20.296875 8.863281 L 19.578125 8.863281 C 19.519531 8.863281 19.488281 8.835938 19.488281 8.777344 C 19.488281 8.714844 19.519531 8.6875 19.578125 8.6875 Z M 21.011719 8.6875 L 21.730469 8.6875 C 21.789062 8.6875 21.820312 8.714844 21.820312 8.777344 C 21.820312 8.835938 21.789062 8.863281 21.730469 8.863281 L 21.011719 8.863281 C 20.953125 8.863281 20.921875 8.835938 20.921875 8.777344 C 20.921875 8.714844 20.953125 8.6875 21.011719 8.6875 Z M 22.449219 8.6875 L 23.167969 8.6875 C 23.226562 8.6875 23.253906 8.714844 23.253906 8.777344 C 23.253906 8.835938 23.226562 8.863281 23.167969 8.863281 L 22.449219 8.863281 C 22.390625 8.863281 22.359375 8.835938 22.359375 8.777344 C 22.359375 8.714844 22.390625 8.6875 22.449219 8.6875 Z M 23.882812 8.6875 L 24.601562 8.6875 C 24.660156 8.6875 24.691406 8.714844 24.691406 8.777344 C 24.691406 8.835938 24.660156 8.863281 24.601562 8.863281 L 23.882812 8.863281 C 23.824219 8.863281 23.792969 8.835938 23.792969 8.777344 C 23.792969 8.714844 23.824219 8.6875 23.882812 8.6875 Z M 25.320312 8.6875 L 26.035156 8.6875 C 26.097656 8.6875 26.125 8.714844 26.125 8.777344 C 26.125 8.835938 26.097656 8.863281 26.035156 8.863281 L 25.320312 8.863281 C 25.257812 8.863281 25.230469 8.835938 25.230469 8.777344 C 25.230469 8.714844 25.257812 8.6875 25.320312 8.6875 Z M 26.753906 8.6875 L 27.472656 8.6875 C 27.53125 8.6875 27.5625 8.714844 27.5625 8.777344 C 27.5625 8.835938 27.53125 8.863281 27.472656 8.863281 L 26.753906 8.863281 C 26.695312 8.863281 26.664062 8.835938 26.664062 8.777344 C 26.664062 8.714844 26.695312 8.6875 26.753906 8.6875 Z M 28.191406 8.6875 L 28.90625 8.6875 C 28.96875 8.6875 28.996094 8.714844 28.996094 8.777344 C 28.996094 8.835938 28.96875 8.863281 28.90625 8.863281 L 28.191406 8.863281 C 28.128906 8.863281 28.101562 8.835938 28.101562 8.777344 C 28.101562 8.714844 28.128906 8.6875 28.191406 8.6875 Z M 29.625 8.6875 L 30.34375 8.6875 C 30.402344 8.6875 30.433594 8.714844 30.433594 8.777344 C 30.433594 8.835938 30.402344 8.863281 30.34375 8.863281 L 29.625 8.863281 C 29.566406 8.863281 29.535156 8.835938 29.535156 8.777344 C 29.535156 8.714844 29.566406 8.6875 29.625 8.6875 Z M 31.0625 8.6875 L 31.777344 8.6875 C 31.839844 8.6875 31.867188 8.714844 31.867188 8.777344 C 31.867188 8.835938 31.839844 8.863281 31.777344 8.863281 L 31.0625 8.863281 C 31 8.863281 30.972656 8.835938 30.972656 8.777344 C 30.972656 8.714844 31 8.6875 31.0625 8.6875 Z M 32.496094 8.6875 L 33.214844 8.6875 C 33.273438 8.6875 33.304688 8.714844 33.304688 8.777344 C 33.304688 8.835938 33.273438 8.863281 33.214844 8.863281 L 32.496094 8.863281 C 32.4375 8.863281 32.40625 8.835938 32.40625 8.777344 C 32.40625 8.714844 32.4375 8.6875 32.496094 8.6875 Z M 33.929688 8.6875 L 34.617188 8.6875 C 34.628906 8.6875 34.644531 8.6875 34.65625 8.6875 C 34.714844 8.691406 34.742188 8.722656 34.738281 8.78125 C 34.734375 8.839844 34.703125 8.871094 34.644531 8.867188 C 34.636719 8.867188 34.628906 8.863281 34.617188 8.863281 L 33.929688 8.863281 C 33.871094 8.863281 33.84375 8.835938 33.84375 8.777344 C 33.84375 8.714844 33.871094 8.6875 33.929688 8.6875 Z M 35.246094 9.300781 C 35.246094 9.304688 35.246094 9.308594 35.246094 9.3125 L 35.246094 10.023438 C 35.246094 10.082031 35.214844 10.113281 35.15625 10.113281 C 35.09375 10.113281 35.066406 10.082031 35.066406 10.023438 L 35.066406 9.3125 C 35.066406 9.3125 35.066406 9.308594 35.066406 9.304688 C 35.066406 9.246094 35.09375 9.214844 35.152344 9.214844 C 35.210938 9.210938 35.242188 9.242188 35.246094 9.300781 Z M 35.246094 10.742188 L 35.246094 11.460938 C 35.246094 11.523438 35.214844 11.550781 35.15625 11.550781 C 35.09375 11.550781 35.066406 11.523438 35.066406 11.460938 L 35.066406 10.742188 C 35.066406 10.683594 35.09375 10.652344 35.15625 10.652344 C 35.214844 10.652344 35.246094 10.683594 35.246094 10.742188 Z M 35.246094 12.183594 L 35.246094 12.902344 C 35.246094 12.960938 35.214844 12.992188 35.15625 12.992188 C 35.09375 12.992188 35.066406 12.960938 35.066406 12.902344 L 35.066406 12.183594 C 35.066406 12.121094 35.09375 12.09375 35.15625 12.09375 C 35.214844 12.09375 35.246094 12.121094 35.246094 12.183594 Z M 35.246094 12.183594 " fill-opacity="1" fill-rule="nonzero"/><g clip-path="url(#4ae5bab6d9)"><path stroke-linecap="round" transform="matrix(0.238434, 0, 0, 0.239119, 0.670495, 7.81905)" fill="none" stroke-linejoin="miter" d="M 144.634387 23.33306 L 144.634387 24.83597 C 144.192048 25.064674 143.766091 25.32605 143.372901 25.636433 " stroke="#231f20" stroke-width="0.75" stroke-opacity="1" stroke-miterlimit="10"/></g><path fill="#231f20" d="M 34.425781 14.5625 C 34.296875 14.769531 34.210938 14.992188 34.167969 15.234375 C 34.15625 15.292969 34.121094 15.316406 34.0625 15.304688 C 34.003906 15.292969 33.980469 15.257812 33.992188 15.199219 C 34.039062 14.9375 34.132812 14.695312 34.273438 14.46875 C 34.304688 14.417969 34.34375 14.40625 34.394531 14.4375 C 34.445312 14.46875 34.457031 14.511719 34.425781 14.5625 Z M 34.171875 15.992188 C 34.222656 16.238281 34.316406 16.46875 34.453125 16.679688 C 34.484375 16.730469 34.476562 16.769531 34.425781 16.804688 C 34.375 16.835938 34.335938 16.828125 34.304688 16.777344 C 34.152344 16.546875 34.050781 16.296875 33.996094 16.027344 C 33.984375 15.96875 34.007812 15.933594 34.066406 15.921875 C 34.125 15.910156 34.160156 15.933594 34.171875 15.992188 Z M 34.171875 15.992188 " fill-opacity="1" fill-rule="nonzero"/><g clip-path="url(#f9718d335c)"><path stroke-linecap="round" transform="matrix(0.238434, 0, 0, 0.239119, 0.670495, 7.81905)" fill="none" stroke-linejoin="miter" d="M 143.372901 39.391328 C 143.766091 39.701712 144.192048 39.963087 144.634387 40.208127 L 144.634387 41.694701 " stroke="#231f20" stroke-width="0.75" stroke-opacity="1" stroke-miterlimit="10"/></g><path fill="#231f20" d="M 35.246094 18.511719 L 35.246094 19.230469 C 35.246094 19.289062 35.214844 19.320312 35.15625 19.320312 C 35.09375 19.320312 35.066406 19.289062 35.066406 19.230469 L 35.066406 18.511719 C 35.066406 18.449219 35.09375 18.421875 35.15625 18.421875 C 35.214844 18.421875 35.246094 18.449219 35.246094 18.511719 Z M 35.246094 19.949219 L 35.246094 20.667969 C 35.246094 20.730469 35.214844 20.757812 35.15625 20.757812 C 35.09375 20.757812 35.066406 20.730469 35.066406 20.667969 L 35.066406 19.949219 C 35.066406 19.890625 35.09375 19.859375 35.15625 19.859375 C 35.214844 19.859375 35.246094 19.890625 35.246094 19.949219 Z M 35.246094 21.390625 L 35.246094 21.875 C 35.242188 21.976562 35.21875 22.070312 35.171875 22.160156 C 35.144531 22.210938 35.105469 22.222656 35.050781 22.195312 C 35 22.167969 34.988281 22.128906 35.015625 22.074219 C 35.046875 22.011719 35.066406 21.945312 35.066406 21.875 L 35.066406 21.390625 C 35.066406 21.328125 35.09375 21.300781 35.15625 21.300781 C 35.214844 21.300781 35.246094 21.328125 35.246094 21.390625 Z M 34.421875 22.496094 L 33.703125 22.496094 C 33.644531 22.496094 33.613281 22.464844 33.613281 22.40625 C 33.613281 22.34375 33.644531 22.316406 33.703125 22.316406 L 34.421875 22.316406 C 34.480469 22.316406 34.511719 22.34375 34.511719 22.40625 C 34.511719 22.464844 34.480469 22.496094 34.421875 22.496094 Z M 32.984375 22.496094 L 32.269531 22.496094 C 32.207031 22.496094 32.179688 22.464844 32.179688 22.40625 C 32.179688 22.34375 32.207031 22.316406 32.269531 22.316406 L 32.984375 22.316406 C 33.046875 22.316406 33.074219 22.34375 33.074219 22.40625 C 33.074219 22.464844 33.046875 22.496094 32.984375 22.496094 Z M 31.550781 22.496094 L 30.832031 22.496094 C 30.773438 22.496094 30.742188 22.464844 30.742188 22.40625 C 30.742188 22.34375 30.773438 22.316406 30.832031 22.316406 L 31.550781 22.316406 C 31.609375 22.316406 31.640625 22.34375 31.640625 22.40625 C 31.640625 22.464844 31.609375 22.496094 31.550781 22.496094 Z M 30.113281 22.496094 L 29.398438 22.496094 C 29.335938 22.496094 29.308594 22.464844 29.308594 22.40625 C 29.308594 22.34375 29.335938 22.316406 29.398438 22.316406 L 30.113281 22.316406 C 30.175781 22.316406 30.203125 22.34375 30.203125 22.40625 C 30.203125 22.464844 30.175781 22.496094 30.113281 22.496094 Z M 28.679688 22.496094 L 27.960938 22.496094 C 27.902344 22.496094 27.871094 22.464844 27.871094 22.40625 C 27.871094 22.34375 27.902344 22.316406 27.960938 22.316406 L 28.679688 22.316406 C 28.738281 22.316406 28.769531 22.34375 28.769531 22.40625 C 28.769531 22.464844 28.738281 22.496094 28.679688 22.496094 Z M 27.246094 22.496094 L 26.527344 22.496094 C 26.46875 22.496094 26.4375 22.464844 26.4375 22.40625 C 26.4375 22.34375 26.46875 22.316406 26.527344 22.316406 L 27.246094 22.316406 C 27.304688 22.316406 27.332031 22.34375 27.332031 22.40625 C 27.332031 22.464844 27.304688 22.496094 27.246094 22.496094 Z M 25.808594 22.496094 L 25.089844 22.496094 C 25.03125 22.496094 25 22.464844 25 22.40625 C 25 22.34375 25.03125 22.316406 25.089844 22.316406 L 25.808594 22.316406 C 25.867188 22.316406 25.898438 22.34375 25.898438 22.40625 C 25.898438 22.464844 25.867188 22.496094 25.808594 22.496094 Z M 24.375 22.496094 L 23.65625 22.496094 C 23.597656 22.496094 23.566406 22.464844 23.566406 22.40625 C 23.566406 22.34375 23.597656 22.316406 23.65625 22.316406 L 24.375 22.316406 C 24.433594 22.316406 24.460938 22.34375 24.460938 22.40625 C 24.460938 22.464844 24.433594 22.496094 24.375 22.496094 Z M 22.9375 22.496094 L 22.21875 22.496094 C 22.160156 22.496094 22.132812 22.464844 22.132812 22.40625 C 22.132812 22.34375 22.160156 22.316406 22.21875 22.316406 L 22.9375 22.316406 C 22.996094 22.316406 23.027344 22.34375 23.027344 22.40625 C 23.027344 22.464844 22.996094 22.496094 22.9375 22.496094 Z M 21.503906 22.496094 L 20.785156 22.496094 C 20.726562 22.496094 20.695312 22.464844 20.695312 22.40625 C 20.695312 22.34375 20.726562 22.316406 20.785156 22.316406 L 21.503906 22.316406 C 21.5625 22.316406 21.59375 22.34375 21.59375 22.40625 C 21.59375 22.464844 21.5625 22.496094 21.503906 22.496094 Z M 20.066406 22.496094 L 19.351562 22.496094 C 19.289062 22.496094 19.261719 22.464844 19.261719 22.40625 C 19.261719 22.34375 19.289062 22.316406 19.351562 22.316406 L 20.066406 22.316406 C 20.125 22.316406 20.15625 22.34375 20.15625 22.40625 C 20.15625 22.464844 20.125 22.496094 20.066406 22.496094 Z M 18.632812 22.496094 L 17.914062 22.496094 C 17.855469 22.496094 17.824219 22.464844 17.824219 22.40625 C 17.824219 22.34375 17.855469 22.316406 17.914062 22.316406 L 18.632812 22.316406 C 18.691406 22.316406 18.722656 22.34375 18.722656 22.40625 C 18.722656 22.464844 18.691406 22.496094 18.632812 22.496094 Z M 17.195312 22.496094 L 16.480469 22.496094 C 16.417969 22.496094 16.390625 22.464844 16.390625 22.40625 C 16.390625 22.34375 16.417969 22.316406 16.480469 22.316406 L 17.195312 22.316406 C 17.257812 22.316406 17.285156 22.34375 17.285156 22.40625 C 17.285156 22.464844 17.257812 22.496094 17.195312 22.496094 Z M 15.761719 22.496094 L 15.042969 22.496094 C 14.984375 22.496094 14.953125 22.464844 14.953125 22.40625 C 14.953125 22.34375 14.984375 22.316406 15.042969 22.316406 L 15.761719 22.316406 C 15.820312 22.316406 15.851562 22.34375 15.851562 22.40625 C 15.851562 22.464844 15.820312 22.496094 15.761719 22.496094 Z M 14.324219 22.496094 L 13.609375 22.496094 C 13.546875 22.496094 13.519531 22.464844 13.519531 22.40625 C 13.519531 22.34375 13.546875 22.316406 13.609375 22.316406 L 14.324219 22.316406 C 14.386719 22.316406 14.414062 22.34375 14.414062 22.40625 C 14.414062 22.464844 14.386719 22.496094 14.324219 22.496094 Z M 12.890625 22.496094 L 12.171875 22.496094 C 12.113281 22.496094 12.082031 22.464844 12.082031 22.40625 C 12.082031 22.34375 12.113281 22.316406 12.171875 22.316406 L 12.890625 22.316406 C 12.949219 22.316406 12.980469 22.34375 12.980469 22.40625 C 12.980469 22.464844 12.949219 22.496094 12.890625 22.496094 Z M 11.453125 22.496094 L 10.738281 22.496094 C 10.679688 22.496094 10.648438 22.464844 10.648438 22.40625 C 10.648438 22.34375 10.679688 22.316406 10.738281 22.316406 L 11.453125 22.316406 C 11.515625 22.316406 11.542969 22.34375 11.542969 22.40625 C 11.542969 22.464844 11.515625 22.496094 11.453125 22.496094 Z M 10.019531 22.496094 L 9.300781 22.496094 C 9.242188 22.496094 9.210938 22.464844 9.210938 22.40625 C 9.210938 22.34375 9.242188 22.316406 9.300781 22.316406 L 10.019531 22.316406 C 10.078125 22.316406 10.109375 22.34375 10.109375 22.40625 C 10.109375 22.464844 10.078125 22.496094 10.019531 22.496094 Z M 8.585938 22.496094 L 7.867188 22.496094 C 7.808594 22.496094 7.777344 22.464844 7.777344 22.40625 C 7.777344 22.34375 7.808594 22.316406 7.867188 22.316406 L 8.585938 22.316406 C 8.644531 22.316406 8.671875 22.34375 8.671875 22.40625 C 8.671875 22.464844 8.644531 22.496094 8.585938 22.496094 Z M 7.148438 22.496094 L 6.429688 22.496094 C 6.371094 22.496094 6.34375 22.464844 6.34375 22.40625 C 6.34375 22.34375 6.371094 22.316406 6.429688 22.316406 L 7.148438 22.316406 C 7.207031 22.316406 7.238281 22.34375 7.238281 22.40625 C 7.238281 22.464844 7.207031 22.496094 7.148438 22.496094 Z M 5.714844 22.496094 L 4.996094 22.496094 C 4.9375 22.496094 4.90625 22.464844 4.90625 22.40625 C 4.90625 22.34375 4.9375 22.316406 4.996094 22.316406 L 5.714844 22.316406 C 5.773438 22.316406 5.804688 22.34375 5.804688 22.40625 C 5.804688 22.464844 5.773438 22.496094 5.714844 22.496094 Z M 4.277344 22.496094 L 3.558594 22.496094 C 3.5 22.496094 3.472656 22.464844 3.472656 22.40625 C 3.472656 22.34375 3.5 22.316406 3.558594 22.316406 L 4.277344 22.316406 C 4.335938 22.316406 4.367188 22.34375 4.367188 22.40625 C 4.367188 22.464844 4.335938 22.496094 4.277344 22.496094 Z M 2.84375 22.496094 L 2.160156 22.496094 C 2.148438 22.496094 2.132812 22.496094 2.117188 22.492188 C 2.058594 22.488281 2.03125 22.457031 2.035156 22.398438 C 2.039062 22.339844 2.070312 22.3125 2.128906 22.316406 C 2.140625 22.316406 2.152344 22.316406 2.160156 22.316406 L 2.84375 22.316406 C 2.902344 22.316406 2.933594 22.34375 2.933594 22.40625 C 2.933594 22.464844 2.902344 22.496094 2.84375 22.496094 Z M 1.535156 21.875 L 1.535156 21.15625 C 1.535156 21.09375 1.566406 21.066406 1.625 21.066406 C 1.683594 21.066406 1.714844 21.09375 1.714844 21.15625 L 1.714844 21.875 C 1.714844 21.933594 1.683594 21.964844 1.625 21.964844 C 1.566406 21.964844 1.535156 21.9375 1.535156 21.875 Z M 1.535156 20.433594 L 1.535156 19.714844 C 1.535156 19.65625 1.566406 19.625 1.625 19.625 C 1.683594 19.625 1.714844 19.65625 1.714844 19.714844 L 1.714844 20.433594 C 1.714844 20.496094 1.683594 20.523438 1.625 20.523438 C 1.566406 20.523438 1.535156 20.496094 1.535156 20.433594 Z M 1.535156 18.996094 L 1.535156 18.277344 C 1.535156 18.214844 1.566406 18.1875 1.625 18.1875 C 1.683594 18.1875 1.714844 18.214844 1.714844 18.277344 L 1.714844 18.996094 C 1.714844 19.054688 1.683594 19.085938 1.625 19.085938 C 1.566406 19.085938 1.535156 19.054688 1.535156 18.996094 Z M 1.535156 18.996094 " fill-opacity="1" fill-rule="nonzero"/></svg>